<?xml version="1.0" encoding="utf-8"?>
<!-- Generator: Adobe Illustrator 24.0.0, SVG Export Plug-In . SVG Version: 6.00 Build 0)  -->
<svg version="1.1" id="图层_1" xmlns="http://www.w3.org/2000/svg" xmlns:xlink="http://www.w3.org/1999/xlink" x="0px" y="0px"
	 viewBox="0 0 60.1 60.1" style="enable-background:new 0 0 60.1 60.1;" xml:space="preserve">
<style type="text/css">
	.st0{filter:url(#Adobe_OpacityMaskFilter);}
	.st1{fill:#FFFFFF;}
	.st2{mask:url(#bg-mask-0_1_);}
	.st3{fill-rule:evenodd;clip-rule:evenodd;fill:#FFFFFF;}
</style>
<g transform="translate(0 0)  rotate(0)">
	<defs>
		<filter id="Adobe_OpacityMaskFilter" filterUnits="userSpaceOnUse" x="15.4" y="15.4" width="28.6" height="28.6">
			<feColorMatrix  type="matrix" values="1 0 0 0 0  0 1 0 0 0  0 0 1 0 0  0 0 0 1 0"/>
		</filter>
	</defs>
	<mask maskUnits="userSpaceOnUse" x="15.4" y="15.4" width="28.6" height="28.6" id="bg-mask-0_1_">
		<g transform="translate(0 0)  rotate(0)" class="st0">
			<rect id="path_0_1_" x="11.3" y="11.3" class="st1" width="37.5" height="37.5"/>
		</g>
	</mask>
	<g class="st2">
		<path id="路径_1" class="st3" d="M43.7,17.4c0.5-0.5,0.5-1.2,0-1.7c-0.5-0.5-1.2-0.5-1.7,0L29.7,28.1L17.4,15.8
			c-0.5-0.5-1.2-0.5-1.7,0c-0.5,0.5-0.5,1.2,0,1.7l12.3,12.3L15.8,42.1c-0.3,0.3-0.4,0.7-0.3,1.1c0.1,0.4,0.4,0.7,0.8,0.8
			c0.4,0.1,0.8,0,1.1-0.3l12.3-12.3l12.3,12.3c0.3,0.3,0.7,0.4,1.1,0.3c0.4-0.1,0.7-0.4,0.8-0.8c0.1-0.4,0-0.8-0.3-1.1L31.4,29.7
			L43.7,17.4z"/>
	</g>
</g>
</svg>
