<?xml version="1.0" encoding="utf-8"?>
<!-- Generator: Adobe Illustrator 24.0.0, SVG Export Plug-In . SVG Version: 6.00 Build 0)  -->
<svg version="1.1" id="图层_1" xmlns="http://www.w3.org/2000/svg" xmlns:xlink="http://www.w3.org/1999/xlink" x="0px" y="0px"
	 viewBox="0 0 60.1 60.1" style="enable-background:new 0 0 60.1 60.1;" xml:space="preserve">
<style type="text/css">
	.st0{filter:url(#Adobe_OpacityMaskFilter);}
	.st1{fill:#FFFFFF;}
	.st2{mask:url(#bg-mask-0_1_);}
	.st3{fill-rule:evenodd;clip-rule:evenodd;fill:#FFFFFF;}
</style>
<g transform="translate(0 0)  rotate(0)">
	<defs>
		<filter id="Adobe_OpacityMaskFilter" filterUnits="userSpaceOnUse" x="13.6" y="20.1" width="32.8" height="20.2">
			<feColorMatrix  type="matrix" values="1 0 0 0 0  0 1 0 0 0  0 0 1 0 0  0 0 0 1 0"/>
		</filter>
	</defs>
	<mask maskUnits="userSpaceOnUse" x="13.6" y="20.1" width="32.8" height="20.2" id="bg-mask-0_1_">
		<g transform="translate(0 0)  rotate(0)" class="st0">
			<rect id="path_0_1_" x="11.3" y="11.3" class="st1" width="37.5" height="37.5"/>
		</g>
	</mask>
	<g class="st2">
		<path id="路径_1" class="st3" d="M46.4,21.2c0-0.6-0.5-1.1-1.1-1.1H14.7c-0.6,0-1.1,0.5-1.1,1.1c0,0.6,0.5,1.1,1.1,1.1h30.6
			C45.9,22.3,46.4,21.8,46.4,21.2z"/>
		<path id="路径_2" class="st3" d="M40.8,30.2c0-0.6-0.5-1.1-1.1-1.1h-25c-0.6,0-1.1,0.5-1.1,1.1c0,0.6,0.5,1.1,1.1,1.1h25
			C40.3,31.3,40.8,30.8,40.8,30.2z"/>
		<path id="路径_3" class="st3" d="M46.4,39.2c0-0.6-0.5-1.1-1.1-1.1H14.7c-0.6,0-1.1,0.5-1.1,1.1c0,0.6,0.5,1.1,1.1,1.1h30.6
			C45.9,40.3,46.4,39.8,46.4,39.2z"/>
	</g>
</g>
</svg>
